<svg width="320" height="343" viewBox="0 0 320 343" fill="none" xmlns="http://www.w3.org/2000/svg">
<g filter="url(#filter0_ddd)">
<path fill-rule="evenodd" clip-rule="evenodd" d="M130.465 16.9665C130.465 18.1915 131.132 18.9665 132.186 18.9665C133.133 18.9665 136.452 21.4855 139.563 24.5635C142.763 27.7305 145.909 30.0095 146.807 29.8135C147.933 29.5675 146.334 27.3555 141.315 22.2165C134.201 14.9315 130.465 13.1245 130.465 16.9665ZM126.965 32.9665C120.825 39.1545 120.302 39.9665 122.457 39.9665C124.021 39.9665 126.616 38.2735 129.688 35.2475L134.479 30.5275L142.244 38.2475C147.704 43.6755 150.739 45.9665 152.468 45.9665C154.58 45.9665 153.521 44.5545 144.965 35.9665C139.486 30.4665 134.757 25.9665 134.457 25.9665C134.157 25.9665 130.785 29.1165 126.965 32.9665ZM129.465 50.4665L124.033 55.9665H110.989H97.945L78.973 74.9585L60 93.9515L67.457 101.459C74.773 108.824 75.011 108.966 79.958 108.966H85.001L95.465 98.4665L105.929 87.9665H122.981H140.033L145.249 82.6855L150.465 77.4035V68.4585V59.5135L143.24 52.2405C139.266 48.2395 135.763 44.9665 135.456 44.9665C135.148 44.9665 132.452 47.4415 129.465 50.4665ZM187.661 91.2645C185.314 93.6855 184.465 95.4835 184.465 98.0315C184.465 101.103 185.647 102.681 194.732 111.735L204.999 121.967H227.524H250.049L254.257 117.679C258.447 113.41 258.465 113.359 258.465 105.882C258.465 98.5075 258.397 98.3055 254.673 94.6695L250.881 90.9665H240.295C232.106 90.9665 229.428 90.6265 228.465 89.4665C227.442 88.2335 223.98 87.9665 209.039 87.9665H190.857L187.661 91.2645ZM95.199 116.732L83.465 128.497V171.498V214.498L95.23 226.233L106.995 237.967H119.465H131.935L143.7 226.233L155.465 214.498V171.467V128.436L143.7 116.701L131.935 104.966H119.434H106.934L95.199 116.732ZM187.465 179.979V214.437L199.199 226.202L210.934 237.967H223.465H235.996L247.731 226.202L259.465 214.437V179.979V145.521L252.69 152.244L245.915 158.967H223.465H201.015L194.24 152.244L187.465 145.521V179.979Z" fill="white"/>
</g>
<g filter="url(#filter1_iiii)">
<path fill-rule="evenodd" clip-rule="evenodd" d="M130.465 16.9665C130.465 18.1915 131.132 18.9665 132.186 18.9665C133.133 18.9665 136.452 21.4855 139.563 24.5635C142.763 27.7305 145.909 30.0095 146.807 29.8135C147.933 29.5675 146.334 27.3555 141.315 22.2165C134.201 14.9315 130.465 13.1245 130.465 16.9665ZM126.965 32.9665C120.825 39.1545 120.302 39.9665 122.457 39.9665C124.021 39.9665 126.616 38.2735 129.688 35.2475L134.479 30.5275L142.244 38.2475C147.704 43.6755 150.739 45.9665 152.468 45.9665C154.58 45.9665 153.521 44.5545 144.965 35.9665C139.486 30.4665 134.757 25.9665 134.457 25.9665C134.157 25.9665 130.785 29.1165 126.965 32.9665ZM129.465 50.4665L124.033 55.9665H110.989H97.945L78.973 74.9585L60 93.9515L67.457 101.459C74.773 108.824 75.011 108.966 79.958 108.966H85.001L95.465 98.4665L105.929 87.9665H122.981H140.033L145.249 82.6855L150.465 77.4035V68.4585V59.5135L143.24 52.2405C139.266 48.2395 135.763 44.9665 135.456 44.9665C135.148 44.9665 132.452 47.4415 129.465 50.4665ZM187.661 91.2645C185.314 93.6855 184.465 95.4835 184.465 98.0315C184.465 101.103 185.647 102.681 194.732 111.735L204.999 121.967H227.524H250.049L254.257 117.679C258.447 113.41 258.465 113.359 258.465 105.882C258.465 98.5075 258.397 98.3055 254.673 94.6695L250.881 90.9665H240.295C232.106 90.9665 229.428 90.6265 228.465 89.4665C227.442 88.2335 223.98 87.9665 209.039 87.9665H190.857L187.661 91.2645ZM95.199 116.732L83.465 128.497V171.498V214.498L95.23 226.233L106.995 237.967H119.465H131.935L143.7 226.233L155.465 214.498V171.467V128.436L143.7 116.701L131.935 104.966H119.434H106.934L95.199 116.732ZM187.465 179.979V214.437L199.199 226.202L210.934 237.967H223.465H235.996L247.731 226.202L259.465 214.437V179.979V145.521L252.69 152.244L245.915 158.967H223.465H201.015L194.24 152.244L187.465 145.521V179.979Z" fill="white"/>
</g>
<mask id="mask0" mask-type="alpha" maskUnits="userSpaceOnUse" x="60" y="15" width="200" height="223">
<path opacity="0.2" fill-rule="evenodd" clip-rule="evenodd" d="M130.465 16.9665C130.465 18.1915 131.132 18.9665 132.186 18.9665C133.133 18.9665 136.452 21.4855 139.563 24.5635C142.763 27.7305 145.909 30.0095 146.807 29.8135C147.933 29.5675 146.334 27.3555 141.315 22.2165C134.201 14.9315 130.465 13.1245 130.465 16.9665ZM126.965 32.9665C120.825 39.1545 120.302 39.9665 122.457 39.9665C124.021 39.9665 126.616 38.2735 129.688 35.2475L134.479 30.5275L142.244 38.2475C147.704 43.6755 150.739 45.9665 152.468 45.9665C154.58 45.9665 153.521 44.5545 144.965 35.9665C139.486 30.4665 134.757 25.9665 134.457 25.9665C134.157 25.9665 130.785 29.1165 126.965 32.9665ZM129.465 50.4665L124.033 55.9665H110.989H97.945L78.973 74.9585L60 93.9515L67.457 101.459C74.773 108.824 75.011 108.966 79.958 108.966H85.001L95.465 98.4665L105.929 87.9665H122.981H140.033L145.249 82.6855L150.465 77.4035V68.4585V59.5135L143.24 52.2405C139.266 48.2395 135.763 44.9665 135.456 44.9665C135.148 44.9665 132.452 47.4415 129.465 50.4665ZM187.661 91.2645C185.314 93.6855 184.465 95.4835 184.465 98.0315C184.465 101.103 185.647 102.681 194.732 111.735L204.999 121.967H227.524H250.049L254.257 117.679C258.447 113.41 258.465 113.359 258.465 105.882C258.465 98.5075 258.397 98.3055 254.673 94.6695L250.881 90.9665H240.295C232.106 90.9665 229.428 90.6265 228.465 89.4665C227.442 88.2335 223.98 87.9665 209.039 87.9665H190.857L187.661 91.2645ZM95.199 116.732L83.465 128.497V171.498V214.498L95.23 226.233L106.995 237.967H119.465H131.935L143.7 226.233L155.465 214.498V171.467V128.436L143.7 116.701L131.935 104.966H119.434H106.934L95.199 116.732ZM187.465 179.979V214.437L199.199 226.202L210.934 237.967H223.465H235.996L247.731 226.202L259.465 214.437V179.979V145.521L252.69 152.244L245.915 158.967H223.465H201.015L194.24 152.244L187.465 145.521V179.979Z" fill="white"/>
</mask>
<g mask="url(#mask0)">
<g filter="url(#filter2_i)">
<path fill-rule="evenodd" clip-rule="evenodd" d="M130.465 16.9665C130.465 18.1915 131.132 18.9665 132.186 18.9665C133.133 18.9665 136.452 21.4855 139.563 24.5635C142.763 27.7305 145.909 30.0095 146.807 29.8135C147.933 29.5675 146.334 27.3555 141.315 22.2165C134.201 14.9315 130.465 13.1245 130.465 16.9665ZM126.965 32.9665C120.825 39.1545 120.302 39.9665 122.457 39.9665C124.021 39.9665 126.616 38.2735 129.688 35.2475L134.479 30.5275L142.244 38.2475C147.704 43.6755 150.739 45.9665 152.468 45.9665C154.58 45.9665 153.521 44.5545 144.965 35.9665C139.486 30.4665 134.757 25.9665 134.457 25.9665C134.157 25.9665 130.785 29.1165 126.965 32.9665ZM129.465 50.4665L124.033 55.9665H110.989H97.945L78.973 74.9585L60 93.9515L67.457 101.459C74.773 108.824 75.011 108.966 79.958 108.966H85.001L95.465 98.4665L105.929 87.9665H122.981H140.033L145.249 82.6855L150.465 77.4035V68.4585V59.5135L143.24 52.2405C139.266 48.2395 135.763 44.9665 135.456 44.9665C135.148 44.9665 132.452 47.4415 129.465 50.4665ZM187.661 91.2645C185.314 93.6855 184.465 95.4835 184.465 98.0315C184.465 101.103 185.647 102.681 194.732 111.735L204.999 121.967H227.524H250.049L254.257 117.679C258.447 113.41 258.465 113.359 258.465 105.882C258.465 98.5075 258.397 98.3055 254.673 94.6695L250.881 90.9665H240.295C232.106 90.9665 229.428 90.6265 228.465 89.4665C227.442 88.2335 223.98 87.9665 209.039 87.9665H190.857L187.661 91.2645ZM95.199 116.732L83.465 128.497V171.498V214.498L95.23 226.233L106.995 237.967H119.465H131.935L143.7 226.233L155.465 214.498V171.467V128.436L143.7 116.701L131.935 104.966H119.434H106.934L95.199 116.732ZM187.465 179.979V214.437L199.199 226.202L210.934 237.967H223.465H235.996L247.731 226.202L259.465 214.437V179.979V145.521L252.69 152.244L245.915 158.967H223.465H201.015L194.24 152.244L187.465 145.521V179.979Z" fill="white"/>
</g>
</g>
<defs>
<filter id="filter0_ddd" x="0" y="0" width="319.465" height="342.967" filterUnits="userSpaceOnUse" color-interpolation-filters="sRGB">
<feFlood flood-opacity="0" result="BackgroundImageFix"/>
<feColorMatrix in="SourceAlpha" type="matrix" values="0 0 0 0 0 0 0 0 0 0 0 0 0 0 0 0 0 0 127 0"/>
<feOffset dy="39"/>
<feGaussianBlur stdDeviation="21.5"/>
<feColorMatrix type="matrix" values="0 0 0 0 0.614108 0 0 0 0 0.645833 0 0 0 0 0.19375 0 0 0 0.25 0"/>
<feBlend mode="normal" in2="BackgroundImageFix" result="effect1_dropShadow"/>
<feColorMatrix in="SourceAlpha" type="matrix" values="0 0 0 0 0 0 0 0 0 0 0 0 0 0 0 0 0 0 127 0"/>
<feOffset dy="15"/>
<feGaussianBlur stdDeviation="14"/>
<feColorMatrix type="matrix" values="0 0 0 0 0.865307 0 0 0 0 0.908333 0 0 0 0 0.295208 0 0 0 0.15 0"/>
<feBlend mode="normal" in2="effect1_dropShadow" result="effect2_dropShadow"/>
<feColorMatrix in="SourceAlpha" type="matrix" values="0 0 0 0 0 0 0 0 0 0 0 0 0 0 0 0 0 0 127 0"/>
<feOffset dy="45"/>
<feGaussianBlur stdDeviation="30"/>
<feColorMatrix type="matrix" values="0 0 0 0 0.941176 0 0 0 0 0.988235 0 0 0 0 0.317647 0 0 0 0.4 0"/>
<feBlend mode="normal" in2="effect2_dropShadow" result="effect3_dropShadow"/>
<feBlend mode="normal" in="SourceGraphic" in2="effect3_dropShadow" result="shape"/>
</filter>
<filter id="filter1_iiii" x="60" y="-15" width="211.465" height="252.967" filterUnits="userSpaceOnUse" color-interpolation-filters="sRGB">
<feFlood flood-opacity="0" result="BackgroundImageFix"/>
<feBlend mode="normal" in="SourceGraphic" in2="BackgroundImageFix" result="shape"/>
<feColorMatrix in="SourceAlpha" type="matrix" values="0 0 0 0 0 0 0 0 0 0 0 0 0 0 0 0 0 0 127 0" result="hardAlpha"/>
<feOffset dy="-30"/>
<feGaussianBlur stdDeviation="20"/>
<feComposite in2="hardAlpha" operator="arithmetic" k2="-1" k3="1"/>
<feColorMatrix type="matrix" values="0 0 0 0 0 0 0 0 0 0 0 0 0 0 0 0 0 0 0.1 0"/>
<feBlend mode="normal" in2="shape" result="effect1_innerShadow"/>
<feColorMatrix in="SourceAlpha" type="matrix" values="0 0 0 0 0 0 0 0 0 0 0 0 0 0 0 0 0 0 127 0" result="hardAlpha"/>
<feOffset dy="-14"/>
<feGaussianBlur stdDeviation="27"/>
<feComposite in2="hardAlpha" operator="arithmetic" k2="-1" k3="1"/>
<feColorMatrix type="matrix" values="0 0 0 0 0.833041 0 0 0 0 0.875 0 0 0 0 0.277083 0 0 0 0.5 0"/>
<feBlend mode="normal" in2="effect1_innerShadow" result="effect2_innerShadow"/>
<feColorMatrix in="SourceAlpha" type="matrix" values="0 0 0 0 0 0 0 0 0 0 0 0 0 0 0 0 0 0 127 0" result="hardAlpha"/>
<feOffset dx="12"/>
<feGaussianBlur stdDeviation="15"/>
<feComposite in2="hardAlpha" operator="arithmetic" k2="-1" k3="1"/>
<feColorMatrix type="matrix" values="0 0 0 0 0.935892 0 0 0 0 0.983333 0 0 0 0 0.307292 0 0 0 0.12 0"/>
<feBlend mode="normal" in2="effect2_innerShadow" result="effect3_innerShadow"/>
<feColorMatrix in="SourceAlpha" type="matrix" values="0 0 0 0 0 0 0 0 0 0 0 0 0 0 0 0 0 0 127 0" result="hardAlpha"/>
<feOffset dx="5"/>
<feGaussianBlur stdDeviation="20"/>
<feComposite in2="hardAlpha" operator="arithmetic" k2="-1" k3="1"/>
<feColorMatrix type="matrix" values="0 0 0 0 0.941176 0 0 0 0 0.988235 0 0 0 0 0.317647 0 0 0 0.05 0"/>
<feBlend mode="normal" in2="effect3_innerShadow" result="effect4_innerShadow"/>
</filter>
<filter id="filter2_i" x="60" y="15" width="215.465" height="222.967" filterUnits="userSpaceOnUse" color-interpolation-filters="sRGB">
<feFlood flood-opacity="0" result="BackgroundImageFix"/>
<feBlend mode="normal" in="SourceGraphic" in2="BackgroundImageFix" result="shape"/>
<feColorMatrix in="SourceAlpha" type="matrix" values="0 0 0 0 0 0 0 0 0 0 0 0 0 0 0 0 0 0 127 0" result="hardAlpha"/>
<feOffset dx="16"/>
<feGaussianBlur stdDeviation="19.5"/>
<feComposite in2="hardAlpha" operator="arithmetic" k2="-1" k3="1"/>
<feColorMatrix type="matrix" values="0 0 0 0 0.941176 0 0 0 0 0.988235 0 0 0 0 0.317647 0 0 0 1 0"/>
<feBlend mode="normal" in2="shape" result="effect1_innerShadow"/>
</filter>
</defs>
</svg>
