<svg width="951" height="1109" viewBox="0 0 951 1109" fill="none" xmlns="http://www.w3.org/2000/svg">
<g filter="url(#filter0_dddddddd)">
<path fill-rule="evenodd" clip-rule="evenodd" d="M356.958 136.567C356.958 141.281 359.523 144.264 363.576 144.264C367.217 144.264 379.98 153.957 391.943 165.802C404.247 177.988 416.345 186.758 419.798 186.004C424.128 185.057 417.979 176.545 398.679 156.77C371.324 128.737 356.958 121.783 356.958 136.567ZM343.5 198.137C319.89 221.949 317.878 225.074 326.165 225.074C332.179 225.074 342.158 218.559 353.97 206.914L372.393 188.751L402.252 218.459C423.247 239.346 434.917 248.162 441.566 248.162C449.687 248.162 445.615 242.729 412.715 209.681C391.646 188.517 373.462 171.2 372.308 171.2C371.155 171.2 358.189 183.322 343.5 198.137ZM353.113 265.479L332.225 286.643H282.067H231.909L158.957 359.727L86 432.814L114.674 461.701C142.806 490.043 143.722 490.593 162.744 490.593H182.136L222.373 450.188L262.61 409.783H328.18H393.75L413.807 389.461L433.864 369.135V334.714V300.293L406.082 272.305C390.8 256.909 377.33 244.314 376.15 244.314C374.966 244.314 364.599 253.838 353.113 265.479ZM576.893 422.474C567.868 431.79 564.604 438.709 564.604 448.514C564.604 460.331 569.149 466.404 604.083 501.245L643.563 540.62H730.178H816.793L832.974 524.119C849.086 507.69 849.155 507.494 849.155 478.721C849.155 450.345 848.893 449.568 834.573 435.576L819.992 421.327H779.286C747.797 421.327 737.499 420.019 733.796 415.555C729.862 410.81 716.55 409.783 659.098 409.783H589.183L576.893 422.474ZM221.35 520.475L176.23 565.748V731.22V896.689L221.469 941.846L266.709 987H314.66H362.611L407.85 941.846L453.09 896.689V731.101V565.513L407.85 520.356L362.611 475.2H314.541H266.475L221.35 520.475ZM576.139 763.856V896.454L621.26 941.727L666.384 987H714.57H762.755L807.879 941.727L853 896.454V763.856V631.258L826.948 657.129L800.896 683H714.57H628.243L602.191 657.129L576.139 631.258V763.856Z" fill="#f8f8f8"/>
<path fill-rule="evenodd" clip-rule="evenodd" d="M356.958 136.567C356.958 141.281 359.523 144.264 363.576 144.264C367.217 144.264 379.98 153.957 391.943 165.802C404.247 177.988 416.345 186.758 419.798 186.004C424.128 185.057 417.979 176.545 398.679 156.77C371.324 128.737 356.958 121.783 356.958 136.567ZM343.5 198.137C319.89 221.949 317.878 225.074 326.165 225.074C332.179 225.074 342.158 218.559 353.97 206.914L372.393 188.751L402.252 218.459C423.247 239.346 434.917 248.162 441.566 248.162C449.687 248.162 445.615 242.729 412.715 209.681C391.646 188.517 373.462 171.2 372.308 171.2C371.155 171.2 358.189 183.322 343.5 198.137ZM353.113 265.479L332.225 286.643H282.067H231.909L158.957 359.727L86 432.814L114.674 461.701C142.806 490.043 143.722 490.593 162.744 490.593H182.136L222.373 450.188L262.61 409.783H328.18H393.75L413.807 389.461L433.864 369.135V334.714V300.293L406.082 272.305C390.8 256.909 377.33 244.314 376.15 244.314C374.966 244.314 364.599 253.838 353.113 265.479ZM576.893 422.474C567.868 431.79 564.604 438.709 564.604 448.514C564.604 460.331 569.149 466.404 604.083 501.245L643.563 540.62H730.178H816.793L832.974 524.119C849.086 507.69 849.155 507.494 849.155 478.721C849.155 450.345 848.893 449.568 834.573 435.576L819.992 421.327H779.286C747.797 421.327 737.499 420.019 733.796 415.555C729.862 410.81 716.55 409.783 659.098 409.783H589.183L576.893 422.474ZM221.35 520.475L176.23 565.748V731.22V896.689L221.469 941.846L266.709 987H314.66H362.611L407.85 941.846L453.09 896.689V731.101V565.513L407.85 520.356L362.611 475.2H314.541H266.475L221.35 520.475ZM576.139 763.856V896.454L621.26 941.727L666.384 987H714.57H762.755L807.879 941.727L853 896.454V763.856V631.258L826.948 657.129L800.896 683H714.57H628.243L602.191 657.129L576.139 631.258V763.856Z"/>
</g>
<defs>
<filter id="filter0_dddddddd" x="0.294434" y="0.499634" width="950.205" height="1108" filterUnits="userSpaceOnUse" color-interpolation-filters="sRGB">
<feFlood flood-opacity="0" result="BackgroundImageFix"/>
<feColorMatrix in="SourceAlpha" type="matrix" values="0 0 0 0 0 0 0 0 0 0 0 0 0 0 0 0 0 0 127 0"/>
<feOffset dx="-20" dy="-28.4185"/>
<feGaussianBlur stdDeviation="15.0833"/>
<feColorMatrix type="matrix" values="0 0 0 0 1 0 0 0 0 1 0 0 0 0 1 0 0 0 0.375 0"/>
<feBlend mode="normal" in2="BackgroundImageFix" result="effect1_dropShadow"/>
<feColorMatrix in="SourceAlpha" type="matrix" values="0 0 0 0 0 0 0 0 0 0 0 0 0 0 0 0 0 0 127 0"/>
<feOffset dx="-20" dy="-31.3638"/>
<feGaussianBlur stdDeviation="17.513"/>
<feColorMatrix type="matrix" values="0 0 0 0 1 0 0 0 0 1 0 0 0 0 1 0 0 0 0.44708 0"/>
<feBlend mode="normal" in2="effect1_dropShadow" result="effect2_dropShadow"/>
<feColorMatrix in="SourceAlpha" type="matrix" values="0 0 0 0 0 0 0 0 0 0 0 0 0 0 0 0 0 0 127 0"/>
<feOffset dx="-20" dy="-36.8341"/>
<feGaussianBlur stdDeviation="21.3359"/>
<feColorMatrix type="matrix" values="0 0 0 0 1 0 0 0 0 1 0 0 0 0 1 0 0 0 0.539141 0"/>
<feBlend mode="normal" in2="effect2_dropShadow" result="effect3_dropShadow"/>
<feColorMatrix in="SourceAlpha" type="matrix" values="0 0 0 0 0 0 0 0 0 0 0 0 0 0 0 0 0 0 127 0"/>
<feOffset dx="-20" dy="-63"/>
<feGaussianBlur stdDeviation="32.5"/>
<feColorMatrix type="matrix" values="0 0 0 0 1 0 0 0 0 1 0 0 0 0 1 0 0 0 0.75 0"/>
<feBlend mode="normal" in2="effect3_dropShadow" result="effect4_dropShadow"/>
<feColorMatrix in="SourceAlpha" type="matrix" values="0 0 0 0 0 0 0 0 0 0 0 0 0 0 0 0 0 0 127 0"/>
<feOffset dx="30" dy="35"/>
<feGaussianBlur stdDeviation="22.5"/>
<feColorMatrix type="matrix" values="0 0 0 0 0.819608 0 0 0 0 0.85098 0 0 0 0 0.901961 0 0 0 0.48 0"/>
<feBlend mode="normal" in2="effect4_dropShadow" result="effect5_dropShadow"/>
<feColorMatrix in="SourceAlpha" type="matrix" values="0 0 0 0 0 0 0 0 0 0 0 0 0 0 0 0 0 0 127 0"/>
<feOffset dx="30" dy="28"/>
<feGaussianBlur stdDeviation="19"/>
<feColorMatrix type="matrix" values="0 0 0 0 0.819608 0 0 0 0 0.85098 0 0 0 0 0.901961 0 0 0 0.4 0"/>
<feBlend mode="normal" in2="effect5_dropShadow" result="effect6_dropShadow"/>
<feColorMatrix in="SourceAlpha" type="matrix" values="0 0 0 0 0 0 0 0 0 0 0 0 0 0 0 0 0 0 127 0"/>
<feOffset dx="30" dy="24"/>
<feGaussianBlur stdDeviation="17"/>
<feColorMatrix type="matrix" values="0 0 0 0 0.819608 0 0 0 0 0.85098 0 0 0 0 0.901961 0 0 0 0.34 0"/>
<feBlend mode="normal" in2="effect6_dropShadow" result="effect7_dropShadow"/>
<feColorMatrix in="SourceAlpha" type="matrix" values="0 0 0 0 0 0 0 0 0 0 0 0 0 0 0 0 0 0 127 0"/>
<feOffset dx="30" dy="54"/>
<feGaussianBlur stdDeviation="33.5"/>
<feColorMatrix type="matrix" values="0 0 0 0 0.819608 0 0 0 0 0.85098 0 0 0 0 0.901961 0 0 0 0.67 0"/>
<feBlend mode="normal" in2="effect7_dropShadow" result="effect8_dropShadow"/>
<feBlend mode="normal" in="SourceGraphic" in2="effect8_dropShadow" result="shape"/>
</filter>
</defs>
</svg>
