<svg width="200" height="223" viewBox="0 0 200 223" fill="none" xmlns="http://www.w3.org/2000/svg">
<path fill-rule="evenodd" clip-rule="evenodd" d="M70.465 1.96654C70.465 3.19154 71.132 3.96654 72.186 3.96654C73.133 3.96654 76.452 6.48554 79.563 9.56354C82.763 12.7305 85.909 15.0095 86.807 14.8135C87.933 14.5675 86.334 12.3555 81.315 7.21654C74.201 -0.0684562 70.465 -1.87546 70.465 1.96654ZM66.965 17.9665C60.825 24.1545 60.302 24.9665 62.457 24.9665C64.021 24.9665 66.616 23.2735 69.688 20.2475L74.479 15.5275L82.244 23.2475C87.704 28.6755 90.739 30.9665 92.468 30.9665C94.58 30.9665 93.521 29.5545 84.965 20.9665C79.486 15.4665 74.757 10.9665 74.457 10.9665C74.157 10.9665 70.785 14.1165 66.965 17.9665ZM69.465 35.4665L64.033 40.9665H50.989H37.945L18.973 59.9585L0 78.9515L7.45699 86.4585C14.773 93.8235 15.011 93.9665 19.958 93.9665H25.001L35.465 83.4665L45.929 72.9665H62.981H80.033L85.249 67.6855L90.465 62.4035V53.4585V44.5135L83.24 37.2405C79.266 33.2395 75.763 29.9665 75.456 29.9665C75.148 29.9665 72.452 32.4415 69.465 35.4665ZM127.661 76.2645C125.314 78.6855 124.465 80.4835 124.465 83.0315C124.465 86.1025 125.647 87.6806 134.732 96.7346L144.999 106.967H167.524H190.049L194.257 102.679C198.447 98.4096 198.465 98.3585 198.465 90.8815C198.465 83.5075 198.397 83.3055 194.673 79.6695L190.881 75.9665H180.295C172.106 75.9665 169.428 75.6265 168.465 74.4665C167.442 73.2335 163.98 72.9665 149.039 72.9665H130.857L127.661 76.2645ZM35.199 101.732L23.465 113.497V156.498V199.498L35.23 211.233L46.995 222.967H59.465H71.935L83.7 211.233L95.465 199.498V156.467V113.436L83.7 101.701L71.935 89.9665H59.434H46.934L35.199 101.732ZM127.465 164.979V199.437L139.199 211.202L150.934 222.967H163.465H175.996L187.731 211.202L199.465 199.437V164.979V130.521L192.69 137.244L185.915 143.967H163.465H141.015L134.24 137.244L127.465 130.521V164.979Z" fill="black"/>
</svg>
